<mxfile host="app.diagrams.net" modified="2022-02-11T08:34:24.772Z" agent="5.0 (Macintosh; Intel Mac OS X 10_15_7) AppleWebKit/537.36 (KHTML, like Gecko) Chrome/98.0.4758.80 Safari/537.36" etag="h2JSArD2OfD6znyR0KvJ" version="16.5.4" type="github">
  <diagram id="oRjNoWX7igMeKWI22GzN" name="Page-1">
    <mxGraphModel dx="1426" dy="794" grid="1" gridSize="10" guides="1" tooltips="1" connect="1" arrows="1" fold="1" page="1" pageScale="1" pageWidth="827" pageHeight="1169" math="0" shadow="0">
      <root>
        <mxCell id="0" />
        <mxCell id="1" parent="0" />
        <mxCell id="eKZl4mJMclT_uZ9gM-5M-1" value="" style="rounded=1;whiteSpace=wrap;html=1;" vertex="1" parent="1">
          <mxGeometry x="200" y="250" width="280" height="230" as="geometry" />
        </mxCell>
        <mxCell id="eKZl4mJMclT_uZ9gM-5M-2" value="基础&lt;br&gt;1" style="rounded=1;whiteSpace=wrap;html=1;" vertex="1" parent="1">
          <mxGeometry x="220" y="410" width="60" height="60" as="geometry" />
        </mxCell>
        <mxCell id="eKZl4mJMclT_uZ9gM-5M-3" value="&lt;span&gt;基础&lt;br&gt;1&lt;br&gt;&lt;/span&gt;" style="rounded=1;whiteSpace=wrap;html=1;" vertex="1" parent="1">
          <mxGeometry x="310" y="410" width="60" height="60" as="geometry" />
        </mxCell>
        <mxCell id="eKZl4mJMclT_uZ9gM-5M-4" value="&lt;span&gt;基础&lt;br&gt;1&lt;br&gt;&lt;/span&gt;" style="rounded=1;whiteSpace=wrap;html=1;" vertex="1" parent="1">
          <mxGeometry x="400" y="410" width="60" height="60" as="geometry" />
        </mxCell>
        <mxCell id="eKZl4mJMclT_uZ9gM-5M-5" value="业务&lt;br&gt;20" style="rounded=1;whiteSpace=wrap;html=1;" vertex="1" parent="1">
          <mxGeometry x="220" y="280" width="240" height="100" as="geometry" />
        </mxCell>
        <mxCell id="eKZl4mJMclT_uZ9gM-5M-7" value="" style="rounded=1;whiteSpace=wrap;html=1;" vertex="1" parent="1">
          <mxGeometry x="190" y="630" width="270" height="170" as="geometry" />
        </mxCell>
        <mxCell id="eKZl4mJMclT_uZ9gM-5M-8" value="基础&lt;br&gt;1" style="rounded=1;whiteSpace=wrap;html=1;" vertex="1" parent="1">
          <mxGeometry x="210" y="730" width="60" height="60" as="geometry" />
        </mxCell>
        <mxCell id="eKZl4mJMclT_uZ9gM-5M-9" value="&lt;span&gt;基础&lt;br&gt;1&lt;br&gt;&lt;/span&gt;" style="rounded=1;whiteSpace=wrap;html=1;" vertex="1" parent="1">
          <mxGeometry x="300" y="730" width="60" height="60" as="geometry" />
        </mxCell>
        <mxCell id="eKZl4mJMclT_uZ9gM-5M-10" value="&lt;span&gt;基础&lt;br&gt;1&lt;br&gt;&lt;/span&gt;" style="rounded=1;whiteSpace=wrap;html=1;" vertex="1" parent="1">
          <mxGeometry x="390" y="730" width="60" height="60" as="geometry" />
        </mxCell>
        <mxCell id="eKZl4mJMclT_uZ9gM-5M-11" value="业务&lt;br&gt;10" style="rounded=1;whiteSpace=wrap;html=1;" vertex="1" parent="1">
          <mxGeometry x="210" y="650" width="240" height="70" as="geometry" />
        </mxCell>
        <mxCell id="eKZl4mJMclT_uZ9gM-5M-13" value="" style="rounded=1;whiteSpace=wrap;html=1;" vertex="1" parent="1">
          <mxGeometry x="490" y="630" width="270" height="170" as="geometry" />
        </mxCell>
        <mxCell id="eKZl4mJMclT_uZ9gM-5M-14" value="基础&lt;br&gt;1" style="rounded=1;whiteSpace=wrap;html=1;" vertex="1" parent="1">
          <mxGeometry x="510" y="730" width="60" height="60" as="geometry" />
        </mxCell>
        <mxCell id="eKZl4mJMclT_uZ9gM-5M-15" value="&lt;span&gt;基础&lt;br&gt;1&lt;br&gt;&lt;/span&gt;" style="rounded=1;whiteSpace=wrap;html=1;" vertex="1" parent="1">
          <mxGeometry x="600" y="730" width="60" height="60" as="geometry" />
        </mxCell>
        <mxCell id="eKZl4mJMclT_uZ9gM-5M-16" value="&lt;span&gt;基础&lt;br&gt;1&lt;br&gt;&lt;/span&gt;" style="rounded=1;whiteSpace=wrap;html=1;" vertex="1" parent="1">
          <mxGeometry x="690" y="730" width="60" height="60" as="geometry" />
        </mxCell>
        <mxCell id="eKZl4mJMclT_uZ9gM-5M-17" value="业务&lt;br&gt;10" style="rounded=1;whiteSpace=wrap;html=1;" vertex="1" parent="1">
          <mxGeometry x="510" y="650" width="240" height="70" as="geometry" />
        </mxCell>
      </root>
    </mxGraphModel>
  </diagram>
</mxfile>
